<svg width="20" height="20" viewBox="0 0 20 20" fill="none" xmlns="http://www.w3.org/2000/svg">
<path d="M9.70154 4.07621L9.99881 4.29731L10.2969 4.0773C11.2068 3.40568 12.3268 3.08139 13.4547 3.16295C14.5818 3.24444 15.6426 3.72573 16.4462 4.52006C16.8826 4.96265 17.2275 5.48702 17.4609 6.06312C17.6948 6.64012 17.8122 7.25765 17.8066 7.88021C17.801 8.50277 17.6725 9.11808 17.4283 9.69078C17.1841 10.2635 16.8292 10.7823 16.3839 11.2174L16.3838 11.2173L16.3783 11.2229L11.3799 16.2629C11.3797 16.2632 11.3794 16.2635 11.3791 16.2637C11.0042 16.6377 10.4962 16.8478 9.96661 16.8478C9.437 16.8478 8.92902 16.6377 8.5541 16.2637C8.55382 16.2635 8.55355 16.2632 8.55328 16.2629L3.55496 11.2229L3.55497 11.2229L3.55226 11.2202C2.70433 10.3782 2.20694 9.24621 2.16023 8.05215C2.11352 6.85809 2.52098 5.69069 3.30054 4.78502C4.0801 3.87935 5.17387 3.3027 6.36158 3.17118C7.54929 3.03966 8.74272 3.36304 9.70154 4.07621ZM15.9785 10.7369L15.9985 10.7169L16.0162 10.6947C16.6369 9.9146 16.9488 8.93333 16.8924 7.93802C16.836 6.9427 16.4152 6.00297 15.7102 5.29805C15.0053 4.59312 14.0656 4.17232 13.0703 4.11589C12.075 4.05947 11.0937 4.37136 10.3136 4.9921L10.2906 5.01039L10.2699 5.03125C10.239 5.06249 10.2021 5.08729 10.1615 5.10421C10.1209 5.12113 10.0773 5.12985 10.0333 5.12985C9.98927 5.12985 9.94571 5.12113 9.90509 5.10421C9.86447 5.08729 9.8276 5.06249 9.79661 5.03125L9.79663 5.03123L9.7929 5.02754C9.03336 4.27764 8.00897 3.85716 6.94161 3.85716C5.87425 3.85716 4.84986 4.27764 4.09032 5.02754L4.09027 5.02749L4.0842 5.0337C3.33926 5.79518 2.92212 6.81809 2.92212 7.88335C2.92212 8.94861 3.33926 9.97152 4.0842 10.733L4.08418 10.733L4.08806 10.7369L9.08661 15.7354C9.08687 15.7357 9.08713 15.736 9.08738 15.7362C9.21117 15.8608 9.35836 15.9598 9.52051 16.0273C9.68299 16.095 9.85726 16.1298 10.0333 16.1298C10.2093 16.1298 10.3836 16.095 10.546 16.0273C10.7082 15.9598 10.8554 15.8608 10.9792 15.7362C10.9794 15.736 10.9797 15.7357 10.9799 15.7354L15.9785 10.7369Z" fill="black" stroke="#FF6C6C"/>
</svg>
