<svg width="27" height="15" viewBox="0 0 27 15" fill="none" xmlns="http://www.w3.org/2000/svg">
<path d="M13.2425 13.9456H14.6777C14.6777 13.9456 15.1113 13.9001 15.3321 13.6743C15.5353 13.4663 15.5289 13.0763 15.5289 13.0763C15.5289 13.0763 15.5001 11.2466 16.3945 10.9785C17.2746 10.7136 18.4058 12.7448 19.6042 13.5264C20.5114 14.1179 21.1995 13.9879 21.1995 13.9879L24.4044 13.9456C24.4044 13.9456 26.0812 13.8481 25.286 12.5953C25.2204 12.4929 24.8236 11.6691 22.9035 9.97756C20.8939 8.20638 21.1627 8.49237 23.5835 5.42938C25.0572 3.56396 25.6476 2.42489 25.4636 1.93741C25.2876 1.47268 24.2043 1.59617 24.2043 1.59617L20.5963 1.6173C20.5963 1.6173 20.329 1.58317 20.1306 1.6953C19.9955 1.78823 19.8859 1.91462 19.8122 2.06253C19.8122 2.06253 19.241 3.50547 18.4794 4.73391C16.873 7.32405 16.2297 7.46217 15.9673 7.3013C15.3545 6.92594 15.5065 5.79337 15.5065 4.99065C15.5065 2.48014 15.9081 1.43368 14.7257 1.16232C14.3337 1.07132 14.0441 1.01283 13.0408 1.00308C11.7528 0.990076 10.6632 1.00633 10.0472 1.29394C9.63596 1.48405 9.31915 1.90979 9.51275 1.93416C9.75116 1.96503 10.2904 2.07228 10.5768 2.44276C10.9464 2.92049 10.9336 3.99294 10.9336 3.99294C10.9336 3.99294 11.1464 6.94869 10.4376 7.31592C9.95116 7.56779 9.28395 7.05431 7.85191 4.70304C7.11749 3.49897 6.56387 2.16815 6.56387 2.16815C6.56387 2.16815 6.45667 1.91954 6.26626 1.78629C6.03426 1.62542 5.71105 1.57343 5.71105 1.57343L2.28216 1.59617C2.28216 1.59617 1.76694 1.60917 1.57814 1.82204C1.41013 2.01053 1.56534 2.40214 1.56534 2.40214C1.56534 2.40214 4.25021 8.36563 7.29029 11.3717C10.0776 14.126 13.2425 13.9456 13.2425 13.9456V13.9456Z" stroke="#FF6C6C" stroke-width="2" stroke-miterlimit="10"/>
</svg>
