<svg width="66" height="20" viewBox="0 0 66 20" fill="none" xmlns="http://www.w3.org/2000/svg">
<path d="M0.383523 19L2.56534 5.90909H6.01705L5.64205 8.21875H5.78693C6.18466 7.4517 6.73864 6.84659 7.44886 6.40341C8.16477 5.96023 8.96875 5.73864 9.8608 5.73864C10.7472 5.73864 11.4688 5.96307 12.0256 6.41193C12.5881 6.85511 12.9119 7.45739 12.9972 8.21875H13.1335C13.5199 7.46875 14.1023 6.86932 14.8807 6.42045C15.6591 5.96591 16.5284 5.73864 17.4886 5.73864C18.6989 5.73864 19.625 6.12784 20.267 6.90625C20.9091 7.68466 21.1108 8.78125 20.8722 10.196L19.4062 19H15.7756L17.1392 10.9119C17.2472 10.179 17.1392 9.63352 16.8153 9.27557C16.4915 8.91193 16.0398 8.73011 15.4602 8.73011C14.8011 8.73011 14.2528 8.94034 13.8153 9.3608C13.3778 9.77557 13.108 10.3239 13.0057 11.0057L11.6506 19H8.13068L9.51136 10.8352C9.60795 10.1875 9.50284 9.67614 9.19602 9.30114C8.89489 8.92045 8.44318 8.73011 7.84091 8.73011C7.44318 8.73011 7.06534 8.83239 6.70739 9.03693C6.35511 9.2358 6.05682 9.51705 5.8125 9.88068C5.56818 10.2386 5.40909 10.6591 5.33523 11.142L4.00568 19H0.383523ZM30.8596 13.4943V5.90909H33.9448V19H30.9534V16.6733H30.817C30.5215 17.4062 30.0357 18.0057 29.3596 18.4716C28.6891 18.9375 27.8624 19.1705 26.8795 19.1705C26.0215 19.1705 25.263 18.9801 24.6039 18.5994C23.9505 18.2131 23.4391 17.6534 23.0698 16.9205C22.7005 16.1818 22.5159 15.2898 22.5159 14.2443V5.90909H25.6011V13.767C25.6011 14.5966 25.8284 15.2557 26.2829 15.7443C26.7374 16.233 27.334 16.4773 28.0727 16.4773C28.5272 16.4773 28.9676 16.3665 29.3937 16.1449C29.8198 15.9233 30.1693 15.5938 30.442 15.1562C30.7204 14.7131 30.8596 14.1591 30.8596 13.4943ZM35.987 19V17.0398L42.737 8.5767V8.46591H36.2086V5.90909H46.5125V8.0142L40.0864 16.3324V16.4432H46.7341V19H35.987ZM48.674 19V5.90909H51.7592V19H48.674ZM50.2251 4.05114C49.7365 4.05114 49.316 3.8892 48.9637 3.56534C48.6115 3.23579 48.4353 2.84091 48.4353 2.38068C48.4353 1.91477 48.6115 1.51989 48.9637 1.19602C49.316 0.866477 49.7365 0.701704 50.2251 0.701704C50.7194 0.701704 51.1399 0.866477 51.4865 1.19602C51.8387 1.51989 52.0149 1.91477 52.0149 2.38068C52.0149 2.84091 51.8387 3.23579 51.4865 3.56534C51.1399 3.8892 50.7194 4.05114 50.2251 4.05114ZM59.682 19.2557C58.3752 19.2557 57.253 18.9688 56.3155 18.3949C55.3837 17.821 54.665 17.0284 54.1593 16.017C53.6593 15 53.4093 13.8295 53.4093 12.5057C53.4093 11.1761 53.665 10.0028 54.1763 8.9858C54.6877 7.96307 55.4093 7.16761 56.3411 6.59943C57.2786 6.02557 58.3866 5.73864 59.665 5.73864C60.7275 5.73864 61.6678 5.93466 62.486 6.3267C63.3099 6.71307 63.9661 7.26136 64.4547 7.97159C64.9434 8.67614 65.2218 9.5 65.29 10.4432H62.3411C62.2218 9.8125 61.9377 9.28693 61.4888 8.86648C61.0457 8.44034 60.4519 8.22727 59.7076 8.22727C59.0769 8.22727 58.5229 8.39773 58.0457 8.73864C57.5684 9.07386 57.1962 9.55682 56.9292 10.1875C56.6678 10.8182 56.5371 11.5739 56.5371 12.4545C56.5371 13.3466 56.6678 14.1136 56.9292 14.7557C57.1905 15.392 57.557 15.8835 58.0286 16.2301C58.5059 16.571 59.0655 16.7415 59.7076 16.7415C60.1621 16.7415 60.5684 16.6562 60.9263 16.4858C61.29 16.3097 61.5939 16.0568 61.8383 15.7273C62.0826 15.3977 62.2502 14.9972 62.3411 14.5256H65.29C65.2161 15.4517 64.9434 16.2727 64.4718 16.9886C64.0002 17.6989 63.3582 18.2557 62.5457 18.6591C61.7332 19.0568 60.7786 19.2557 59.682 19.2557Z" fill="#2A2A2D"/>
</svg>
