<svg width="20" height="20" viewBox="0 0 20 20" fill="none" xmlns="http://www.w3.org/2000/svg">
<path d="M12.5 11.3333H12.4999C11.8463 11.3333 11.2045 11.508 10.641 11.8393C10.0776 12.1707 9.61296 12.6467 9.29528 13.218L9.29312 13.2218L9.2931 13.2218C9.24964 13.2984 9.23822 13.389 9.26133 13.4739C9.28427 13.5582 9.33939 13.6302 9.4148 13.6742C9.46388 13.7017 9.51911 13.7163 9.57535 13.7166C9.63398 13.7163 9.6915 13.7005 9.7421 13.6709C9.79265 13.6412 9.83449 13.5988 9.86341 13.5479C9.86364 13.5474 9.86387 13.547 9.8641 13.5466L10.3 13.7916C10.5169 13.3986 10.8357 13.0713 11.2228 12.844C11.6099 12.6168 12.0511 12.4979 12.5 12.5V11.3333ZM12.5 11.3333C12.5884 11.3333 12.6732 11.3684 12.7357 11.4309C12.7982 11.4934 12.8333 11.5782 12.8333 11.6666C12.8333 11.755 12.7982 11.8398 12.7357 11.9023C12.6734 11.9646 12.5889 11.9997 12.5009 12L12.5 11.3333ZM7.31477 8.05614C7.36959 8.01951 7.43404 7.99996 7.49996 7.99996C7.58837 7.99996 7.67315 8.03508 7.73566 8.09759C7.79818 8.1601 7.8333 8.24489 7.8333 8.33329C7.8333 8.39922 7.81375 8.46367 7.77712 8.51848C7.74049 8.5733 7.68843 8.61602 7.62752 8.64125C7.56662 8.66648 7.49959 8.67308 7.43493 8.66022C7.37027 8.64736 7.31088 8.61561 7.26426 8.56899C7.21764 8.52238 7.1859 8.46298 7.17303 8.39832C7.16017 8.33366 7.16677 8.26664 7.192 8.20573C7.21723 8.14482 7.25996 8.09276 7.31477 8.05614ZM12.3148 8.05614C12.3696 8.01951 12.434 7.99996 12.5 7.99996C12.5884 7.99996 12.6732 8.03508 12.7357 8.09759C12.7982 8.1601 12.8333 8.24489 12.8333 8.33329C12.8333 8.39922 12.8137 8.46367 12.7771 8.51848C12.7405 8.5733 12.6884 8.61602 12.6275 8.64125C12.5666 8.66648 12.4996 8.67308 12.4349 8.66022C12.3703 8.64736 12.3109 8.61561 12.2643 8.56899C12.2176 8.52238 12.1859 8.46298 12.173 8.39832C12.1602 8.33366 12.1668 8.26664 12.192 8.20573C12.2172 8.14482 12.26 8.09276 12.3148 8.05614ZM5.648 3.48678C6.93618 2.62604 8.45068 2.16663 9.99996 2.16663C11.0287 2.16663 12.0473 2.36924 12.9977 2.7629C13.948 3.15656 14.8116 3.73356 15.539 4.46096C16.2664 5.18835 16.8434 6.05189 17.237 7.00227C17.6307 7.95266 17.8333 8.97127 17.8333 9.99996C17.8333 11.5492 17.3739 13.0637 16.5131 14.3519C15.6524 15.6401 14.429 16.6441 12.9977 17.237C11.5663 17.8299 9.99127 17.985 8.47176 17.6828C6.95224 17.3805 5.55647 16.6345 4.46096 15.539C3.36545 14.4435 2.6194 13.0477 2.31715 11.5282C2.01489 10.0086 2.17002 8.43363 2.76291 7.00227C3.35579 5.57092 4.35981 4.34752 5.648 3.48678ZM6.01838 15.9588C7.19693 16.7463 8.58253 17.1666 9.99996 17.1666C11.9007 17.1666 13.7236 16.4116 15.0676 15.0676C16.4116 13.7235 17.1666 11.9007 17.1666 9.99996C17.1666 8.58253 16.7463 7.19693 15.9588 6.01837C15.1713 4.83982 14.0521 3.92125 12.7425 3.37882C11.433 2.83639 9.99201 2.69447 8.60182 2.971C7.21162 3.24753 5.93464 3.93008 4.93236 4.93236C3.93009 5.93464 3.24753 7.21162 2.971 8.60181C2.69447 9.99201 2.8364 11.433 3.37883 12.7425C3.92125 14.0521 4.83982 15.1713 6.01838 15.9588Z" fill="black" stroke="#FF6C6C"/>
</svg>
