<svg width="20" height="20" viewBox="0 0 20 20" fill="none" xmlns="http://www.w3.org/2000/svg">
<path d="M9.70166 4.07621L9.99893 4.29731L10.297 4.0773C11.2069 3.40568 12.3269 3.08139 13.4549 3.16295C14.5819 3.24444 15.6427 3.72572 16.4463 4.52003C16.8828 4.96263 17.2276 5.487 17.4611 6.06312C17.6949 6.64012 17.8124 7.25765 17.8068 7.88021C17.8012 8.50277 17.6726 9.11808 17.4284 9.69078C17.1842 10.2635 16.8293 10.7823 16.384 11.2174L16.3839 11.2173L16.3784 11.2229L11.3801 16.2629C11.3798 16.2632 11.3795 16.2635 11.3792 16.2637C11.0043 16.6377 10.4964 16.8478 9.96673 16.8478C9.4371 16.8478 8.9291 16.6377 8.55417 16.2637C8.55392 16.2634 8.55366 16.2632 8.5534 16.2629L3.55508 11.2229L3.55509 11.2229L3.55238 11.2202C2.70446 10.3782 2.20706 9.24621 2.16035 8.05215C2.11365 6.85809 2.5211 5.69069 3.30066 4.78502C4.08022 3.87935 5.17399 3.3027 6.3617 3.17118C7.54941 3.03966 8.74284 3.36304 9.70166 4.07621ZM15.9786 10.7369L15.9987 10.7169L16.0163 10.6947C16.6371 9.9146 16.9489 8.93333 16.8925 7.93802C16.8361 6.9427 16.4153 6.00297 15.7104 5.29805C15.0054 4.59312 14.0657 4.17232 13.0704 4.11589C12.0751 4.05947 11.0938 4.37136 10.3137 4.9921L10.2908 5.01039L10.2701 5.03125C10.2391 5.06249 10.2022 5.08729 10.1616 5.10421L10.3539 5.56576L10.1616 5.10421C10.121 5.12113 10.0774 5.12985 10.0334 5.12985C9.9894 5.12985 9.94583 5.12113 9.90521 5.10421C9.86459 5.08729 9.82772 5.06249 9.79673 5.03125L9.79675 5.03123L9.79302 5.02754C9.03348 4.27764 8.00909 3.85716 6.94173 3.85716C5.87438 3.85716 4.84999 4.27764 4.09045 5.02754L4.09039 5.02749L4.08432 5.0337C3.33938 5.79518 2.92224 6.81809 2.92224 7.88335C2.92224 8.94861 3.33938 9.97152 4.08432 10.733L4.0843 10.733L4.08818 10.7369L9.08673 15.7354C9.08704 15.7358 9.08735 15.7361 9.08766 15.7364C9.21141 15.8609 9.35855 15.9598 9.52063 16.0273C9.68311 16.095 9.85739 16.1298 10.0334 16.1298C10.2094 16.1298 10.3837 16.095 10.5462 16.0273L10.3539 15.5658L10.5462 16.0273C10.7083 15.9598 10.8554 15.8609 10.9791 15.7364C10.9795 15.7361 10.9798 15.7358 10.9801 15.7354L15.9786 10.7369Z" fill="black" stroke="#3E7D20"/>
</svg>
