<svg width="14" height="15" viewBox="0 0 14 15" fill="none" xmlns="http://www.w3.org/2000/svg">
<path d="M7.0003 8.32307L9.5028 10.8314C9.61264 10.9413 9.76162 11.003 9.91696 11.003C10.0723 11.003 10.2213 10.9413 10.3311 10.8314C10.441 10.7216 10.5027 10.5726 10.5027 10.4172C10.5027 10.2619 10.441 10.1129 10.3311 10.0031L7.8228 7.50057L10.3311 4.99807C10.441 4.88823 10.5027 4.73925 10.5027 4.58391C10.5027 4.42857 10.441 4.27959 10.3311 4.16974C10.2213 4.0599 10.0723 3.99819 9.91697 3.99819C9.76162 3.99819 9.61264 4.0599 9.5028 4.16974L7.0003 6.67807L4.4978 4.16974C4.44357 4.11507 4.37905 4.07167 4.30797 4.04205C4.23688 4.01244 4.16064 3.99719 4.08363 3.99719C4.00663 3.99719 3.93038 4.01244 3.8593 4.04205C3.78821 4.07167 3.72369 4.11507 3.66947 4.16974C3.61479 4.22397 3.57139 4.28849 3.54178 4.35957C3.51216 4.43066 3.49692 4.5069 3.49692 4.58391C3.49692 4.66091 3.51216 4.73716 3.54178 4.80824C3.57139 4.87933 3.61479 4.94385 3.66947 4.99807L6.1778 7.50057L3.66947 10.0031C3.61479 10.0573 3.57139 10.1218 3.54178 10.1929C3.51216 10.264 3.49692 10.3402 3.49692 10.4172C3.49692 10.4942 3.51216 10.5705 3.54178 10.6416C3.57139 10.7127 3.61479 10.7772 3.66947 10.8314C3.72369 10.8861 3.78821 10.9295 3.8593 10.9591C3.93038 10.9887 4.00662 11.004 4.08363 11.004C4.16064 11.004 4.23688 10.9887 4.30797 10.9591C4.37905 10.9295 4.44357 10.8861 4.4978 10.8314L7.0003 8.32307Z" fill="black"/>
</svg>
