<svg width="15" height="15" viewBox="0 0 15 15" fill="none" xmlns="http://www.w3.org/2000/svg">
<path fill-rule="evenodd" clip-rule="evenodd" d="M6.63733 6.45066L12.692 0.395989C12.9455 0.142441 13.2894 0 13.648 0C14.0066 0 14.3505 0.142441 14.604 0.395989C14.8575 0.649536 15 0.99342 15 1.35199C15 1.71056 14.8575 2.05444 14.604 2.30799L8.54934 8.36267L6 9L6.63733 6.45066Z" fill="#FF6C6C"/>
<path d="M3 1H9.46667C9.91212 1 10.1352 1.53857 9.82022 1.85355L5.93022 5.74356C5.80206 5.87172 5.71114 6.0323 5.66718 6.20813L5.02985 8.75746C4.94465 9.09824 5.0445 9.45873 5.29288 9.70711C5.54126 9.95549 5.90175 10.0553 6.24253 9.97014L8.79186 9.33281C8.9677 9.28885 9.12827 9.19793 9.25643 9.06977L13.1464 5.17976C13.4614 4.86478 14 5.08786 14 5.53331V12C14 13.1046 13.1046 14 12 14H3C1.89543 14 1 13.1046 1 12V3C1 1.89543 1.89543 1 3 1Z" fill="#FF6C6C"/>
</svg>
