<svg width="30" height="30" viewBox="0 0 30 30" fill="none" xmlns="http://www.w3.org/2000/svg">
<path d="M14.6995 21.9415H16.374C16.374 21.9415 16.8799 21.8925 17.1375 21.6492C17.3745 21.4252 17.3671 21.0052 17.3671 21.0052C17.3671 21.0052 17.3335 19.0348 18.377 18.7461C19.4037 18.4609 20.7234 20.6483 22.1216 21.49C23.18 22.1269 23.9827 21.9869 23.9827 21.9869L27.7217 21.9415C27.7217 21.9415 29.6781 21.8365 28.7503 20.4873C28.6738 20.377 28.2108 19.4898 25.9708 17.6681C23.6262 15.7607 23.9398 16.0687 26.7641 12.7701C28.4834 10.7612 29.1722 9.5345 28.9575 9.00952C28.7522 8.50904 27.4884 8.64203 27.4884 8.64203L23.279 8.66478C23.279 8.66478 22.9672 8.62803 22.7357 8.74878C22.5781 8.84886 22.4502 8.98498 22.3643 9.14426C22.3643 9.14426 21.6979 10.6982 20.8093 12.0211C18.9351 14.8105 18.1847 14.9593 17.8785 14.786C17.1636 14.3818 17.3409 13.1621 17.3409 12.2976C17.3409 9.59399 17.8095 8.46704 16.43 8.1748C15.9726 8.07681 15.6348 8.01381 14.4643 8.00331C12.9616 7.98931 11.6904 8.00681 10.9717 8.31655C10.4919 8.52129 10.1223 8.97977 10.3482 9.00602C10.6264 9.03927 11.2554 9.15476 11.5896 9.55374C12.0208 10.0682 12.0059 11.2232 12.0059 11.2232C12.0059 11.2232 12.2541 14.4063 11.4272 14.8018C10.8597 15.073 10.0813 14.52 8.41056 11.9879C7.55373 10.6912 6.90785 9.25801 6.90785 9.25801C6.90785 9.25801 6.78278 8.99027 6.56064 8.84677C6.28997 8.67353 5.91289 8.61753 5.91289 8.61753L1.91252 8.64203C1.91252 8.64203 1.31143 8.65603 1.09116 8.88527C0.895156 9.08826 1.07623 9.51 1.07623 9.51C1.07623 9.51 4.20858 15.9322 7.75534 19.1696C11.0072 22.1357 14.6995 21.9415 14.6995 21.9415V21.9415Z" stroke="#FF6C6C" stroke-width="2" stroke-miterlimit="10"/>
</svg>
