<svg width="21" height="25" viewBox="0 0 21 25" fill="none" xmlns="http://www.w3.org/2000/svg">
<circle cx="10.5" cy="14.8394" r="9" stroke="#FF6C6C" stroke-width="2"/>
<path fill-rule="evenodd" clip-rule="evenodd" d="M14.2846 5.54445C14.2847 8.74684 14.3087 11.0742 14.3437 11.2861C14.376 11.4821 14.3951 11.6497 14.3861 11.6587C14.3771 11.6676 14.2484 11.5239 14.1002 11.3393C13.5633 10.6706 12.5631 10.0376 11.6543 9.7915C11.4548 9.73743 11.0047 9.67761 10.654 9.65853C8.47945 9.5402 6.55391 10.8416 5.84348 12.9099C5.60788 13.5957 5.56774 14.7345 5.75346 15.4634C6.3073 17.6372 8.15148 19.0583 10.4204 19.0598C12.4455 19.0611 14.2449 17.8177 14.9112 15.9567C15.1882 15.1832 15.2035 14.8811 15.2339 9.62037C15.2567 5.69788 15.2785 4.65682 15.3377 4.67938C15.5364 4.75505 20.3997 6.21949 20.4524 6.21949C20.4918 6.21949 20.5073 5.48715 20.4969 4.11229L20.481 2.00509L17.428 1.0835C15.7488 0.576647 14.3545 0.161303 14.3295 0.160523C14.3046 0.159743 14.2844 2.5825 14.2846 5.54445Z" fill="#FF6C6C"/>
</svg>
