<svg width="28" height="28" viewBox="0 0 28 28" fill="none" xmlns="http://www.w3.org/2000/svg">
<path d="M16.2222 2.88889H7.33331C6.74394 2.88889 6.17871 3.12301 5.76196 3.53976C5.34521 3.95651 5.11108 4.52174 5.11108 5.11111V22.8889C5.11108 23.4783 5.34521 24.0435 5.76196 24.4602C6.17871 24.877 6.74394 25.1111 7.33331 25.1111H20.6666C21.256 25.1111 21.8212 24.877 22.238 24.4602C22.6547 24.0435 22.8889 23.4783 22.8889 22.8889V9.55556L16.2222 2.88889Z" stroke="#FF6C6C" stroke-width="2" stroke-linecap="round" stroke-linejoin="round"/>
<path d="M18.4446 19.5556H9.55566" stroke="#FF6C6C" stroke-width="2" stroke-linecap="round" stroke-linejoin="round"/>
<path d="M18.4446 15.1111H9.55566" stroke="#FF6C6C" stroke-width="2" stroke-linecap="round" stroke-linejoin="round"/>
<path d="M11.7779 10.6667H10.6668H9.55566" stroke="#FF6C6C" stroke-width="2" stroke-linecap="round" stroke-linejoin="round"/>
<path d="M16.2224 2.88889V9.55555H22.8891" stroke="#FF6C6C" stroke-width="2" stroke-linecap="round" stroke-linejoin="round"/>
</svg>
