<svg width="24" height="24" viewBox="0 0 24 24" fill="none" xmlns="http://www.w3.org/2000/svg">
<path d="M15.3333 13.6112H15.3334C15.4954 13.6112 15.6509 13.6756 15.7655 13.7902C15.8801 13.9048 15.9445 14.0603 15.9445 14.2223C15.9445 14.3844 15.8801 14.5398 15.7655 14.6545C15.6511 14.7688 15.4961 14.8332 15.3344 14.8334C14.6465 14.8305 13.9705 15.0128 13.3773 15.3611C12.7844 15.7092 12.296 16.2104 11.9634 16.8121C11.9103 16.9058 11.8335 16.9839 11.7405 17.0384C11.6474 17.093 11.5416 17.1219 11.4337 17.1223C11.3297 17.1218 11.2277 17.0948 11.1371 17.0438C10.9982 16.9631 10.8966 16.8309 10.8544 16.6758C10.812 16.5201 10.8329 16.354 10.9126 16.2136L10.9126 16.2137L10.9148 16.2098C11.3528 15.4221 11.9934 14.7658 12.7703 14.309C13.5472 13.8521 14.4321 13.6112 15.3333 13.6112ZM8.32718 9.26977C8.42768 9.20262 8.54583 9.16678 8.6667 9.16678C8.82878 9.16678 8.98421 9.23116 9.09882 9.34577C9.21343 9.46037 9.27781 9.61581 9.27781 9.77789C9.27781 9.89875 9.24197 10.0169 9.17482 10.1174C9.10767 10.2179 9.01223 10.2962 8.90056 10.3425C8.7889 10.3887 8.66602 10.4008 8.54748 10.3773C8.42893 10.3537 8.32004 10.2955 8.23458 10.21C8.14911 10.1245 8.09091 10.0157 8.06733 9.89711C8.04375 9.77856 8.05585 9.65569 8.10211 9.54402C8.14836 9.43236 8.22669 9.33692 8.32718 9.26977ZM14.9938 9.26977C15.0943 9.20262 15.2125 9.16678 15.3334 9.16678C15.4954 9.16678 15.6509 9.23116 15.7655 9.34577C15.8801 9.46037 15.9445 9.61581 15.9445 9.77789C15.9445 9.89875 15.9086 10.0169 15.8415 10.1174C15.7743 10.2179 15.6789 10.2962 15.5672 10.3425C15.4556 10.3887 15.3327 10.4008 15.2141 10.3773C15.0956 10.3537 14.9867 10.2955 14.9012 10.21C14.8158 10.1245 14.7576 10.0157 14.734 9.89711C14.7104 9.77856 14.7225 9.65569 14.7688 9.54403C14.815 9.43236 14.8934 9.33692 14.9938 9.26977ZM6.10482 3.17729C7.8498 2.01133 9.90135 1.389 12 1.389C13.3935 1.389 14.7733 1.66346 16.0607 2.19672C17.3481 2.72998 18.5179 3.51159 19.5032 4.49692C20.4886 5.48225 21.2702 6.65201 21.8034 7.93941C22.3367 9.22681 22.6111 10.6066 22.6111 12.0001C22.6111 14.0988 21.9888 16.1503 20.8228 17.8953C19.6569 19.6403 17.9997 21.0004 16.0607 21.8035C14.1218 22.6066 11.9883 22.8168 9.92991 22.4073C7.87155 21.9979 5.98083 20.9873 4.49684 19.5033C3.01285 18.0193 2.00224 16.1286 1.59281 14.0702C1.18338 12.0119 1.39351 9.87834 2.19664 7.93941C2.99977 6.00048 4.35983 4.34326 6.10482 3.17729ZM6.78384 19.8067C8.32784 20.8383 10.1431 21.389 12 21.389C14.4901 21.389 16.8782 20.3998 18.639 18.6391C20.3997 16.8783 21.3889 14.4902 21.3889 12.0001C21.3889 10.1432 20.8383 8.32792 19.8066 6.78392C18.7749 5.23993 17.3086 4.03653 15.593 3.32591C13.8774 2.61528 11.9896 2.42935 10.1684 2.79162C8.34709 3.1539 6.67415 4.0481 5.36109 5.36116C4.04803 6.67422 3.15382 8.34716 2.79155 10.1684C2.42928 11.9897 2.61521 13.8775 3.32583 15.5931C4.03645 17.3087 5.23985 18.775 6.78384 19.8067Z" fill="black" stroke="#FF6C6C"/>
</svg>
