<svg width="16" height="16" viewBox="0 0 16 16" fill="none" xmlns="http://www.w3.org/2000/svg">
<path d="M2.375 11.75V8C2.375 6.50816 2.96763 5.07742 4.02252 4.02252C5.07742 2.96763 6.50816 2.375 8 2.375C9.49184 2.375 10.9226 2.96763 11.9775 4.02252C13.0324 5.07742 13.625 6.50816 13.625 8V11.75" stroke="#FF6C6C" stroke-width="2" stroke-linecap="round" stroke-linejoin="round"/>
<path d="M13.625 12.375C13.625 12.7065 13.4933 13.0245 13.2589 13.2589C13.0245 13.4933 12.7065 13.625 12.375 13.625H11.75C11.4185 13.625 11.1005 13.4933 10.8661 13.2589C10.6317 13.0245 10.5 12.7065 10.5 12.375V10.5C10.5 10.1685 10.6317 9.85054 10.8661 9.61612C11.1005 9.3817 11.4185 9.25 11.75 9.25H13.625V12.375ZM2.375 12.375C2.375 12.7065 2.5067 13.0245 2.74112 13.2589C2.97554 13.4933 3.29348 13.625 3.625 13.625H4.25C4.58152 13.625 4.89946 13.4933 5.13388 13.2589C5.3683 13.0245 5.5 12.7065 5.5 12.375V10.5C5.5 10.1685 5.3683 9.85054 5.13388 9.61612C4.89946 9.3817 4.58152 9.25 4.25 9.25H2.375V12.375Z" stroke="#FF6C6C" stroke-width="2" stroke-linecap="round" stroke-linejoin="round"/>
</svg>
