<svg width="16" height="17" viewBox="0 0 16 17" fill="none" xmlns="http://www.w3.org/2000/svg">
<path d="M13.44 3.83339C12.7291 3.12986 11.7902 2.70358 10.7927 2.63145C9.79516 2.55932 8.80469 2.84611 8.00001 3.44006C7.15178 2.80915 6.09601 2.52307 5.04529 2.63942C3.99458 2.75577 3.02697 3.26591 2.33733 4.06712C1.64768 4.86832 1.28723 5.90107 1.32854 6.9574C1.36986 8.01373 1.80989 9.01517 2.56001 9.76006L6.56001 13.7934C6.93501 14.1679 7.44334 14.3783 7.97334 14.3783C8.50335 14.3783 9.01168 14.1679 9.38668 13.7934L13.3867 9.76006C13.7806 9.37516 14.0946 8.9162 14.3106 8.40955C14.5266 7.9029 14.6404 7.35856 14.6454 6.80781C14.6503 6.25707 14.5464 5.71077 14.3395 5.20031C14.1327 4.68986 13.827 4.22532 13.44 3.83339ZM12.5 8.80673L8.50001 12.8067C8.43804 12.8692 8.3643 12.9188 8.28306 12.9527C8.20182 12.9865 8.11468 13.0039 8.02668 13.0039C7.93867 13.0039 7.85153 12.9865 7.77029 12.9527C7.68905 12.9188 7.61532 12.8692 7.55334 12.8067L3.55334 8.80673C3.03052 8.27229 2.73775 7.55437 2.73775 6.80673C2.73775 6.05908 3.03052 5.34116 3.55334 4.80673C4.08611 4.28072 4.80466 3.98577 5.55334 3.98577C6.30203 3.98577 7.02057 4.28072 7.55334 4.80673C7.61532 4.86921 7.68905 4.91881 7.77029 4.95266C7.85153 4.9865 7.93867 5.00393 8.02668 5.00393C8.11468 5.00393 8.20182 4.9865 8.28306 4.95266C8.3643 4.91881 8.43804 4.86921 8.50001 4.80673C9.04719 4.37132 9.73548 4.15254 10.4336 4.19212C11.1318 4.2317 11.7909 4.52687 12.2854 5.02133C12.7799 5.51579 13.075 6.17495 13.1146 6.8731C13.1542 7.57125 12.9354 8.25955 12.5 8.80673Z" fill="black"/>
</svg>
