<svg width="20" height="20" viewBox="0 0 20 20" fill="none" xmlns="http://www.w3.org/2000/svg">
<path d="M15.9333 1.84164C15.8353 1.75942 15.7197 1.70086 15.5954 1.67051C15.4711 1.64017 15.3415 1.63884 15.2167 1.66664L8.55 3.33331C8.3651 3.37893 8.20141 3.48651 8.08618 3.63813C7.97095 3.78976 7.91112 3.97628 7.91667 4.16664V12.7916C7.52731 12.6015 7.09999 12.5018 6.66667 12.5C6.08981 12.5 5.5259 12.671 5.04625 12.9915C4.56661 13.312 4.19277 13.7675 3.97202 14.3005C3.75126 14.8334 3.6935 15.4199 3.80604 15.9857C3.91858 16.5514 4.19637 17.0711 4.60427 17.479C5.01218 17.8869 5.53188 18.1647 6.09765 18.2773C6.66343 18.3898 7.24988 18.332 7.78283 18.1113C8.31578 17.8905 8.7713 17.5167 9.09179 17.0371C9.41228 16.5574 9.58333 15.9935 9.58333 15.4166V8.98331L15.6167 7.49997H15.675L15.8333 7.37497L15.9583 7.29164C15.9988 7.25396 16.0351 7.21205 16.0667 7.16664C16.0992 7.12833 16.1271 7.08639 16.15 7.04164C16.1752 6.99491 16.1922 6.94416 16.2 6.89164C16.2087 6.83922 16.2087 6.78572 16.2 6.73331C16.2037 6.71124 16.2037 6.6887 16.2 6.66664V2.49997C16.2068 2.37737 16.1864 2.25478 16.1403 2.14097C16.0942 2.02716 16.0235 1.92495 15.9333 1.84164V1.84164ZM6.66667 16.6666C6.41944 16.6666 6.17777 16.5933 5.97221 16.456C5.76664 16.3186 5.60643 16.1234 5.51182 15.895C5.41721 15.6666 5.39245 15.4153 5.44069 15.1728C5.48892 14.9303 5.60797 14.7076 5.78278 14.5328C5.9576 14.3579 6.18033 14.2389 6.42281 14.1907C6.66528 14.1424 6.91661 14.1672 7.14502 14.2618C7.37343 14.3564 7.56865 14.5166 7.70601 14.7222C7.84336 14.9277 7.91667 15.1694 7.91667 15.4166C7.91667 15.7482 7.78497 16.0661 7.55055 16.3005C7.31613 16.5349 6.99819 16.6666 6.66667 16.6666ZM14.5833 6.01664L9.58333 7.26664V4.81664L14.5833 3.56664V6.01664Z" fill="#FF6C6C"/>
</svg>
