<svg width="18" height="24" viewBox="0 0 18 24" fill="none" xmlns="http://www.w3.org/2000/svg">
<path d="M16.9112 1.12219C16.7805 1.01255 16.6264 0.934483 16.4606 0.894019C16.2949 0.853556 16.1221 0.851788 15.9556 0.888852L7.06675 3.11107C6.82022 3.17191 6.60197 3.31535 6.44832 3.51751C6.29468 3.71968 6.21491 3.96837 6.22231 4.22218V15.7222C5.70316 15.4686 5.1334 15.3357 4.55564 15.3333C3.78649 15.3333 3.03461 15.5614 2.39509 15.9887C1.75556 16.416 1.25711 17.0234 0.962774 17.734C0.668433 18.4446 0.59142 19.2265 0.741474 19.9809C0.891527 20.7352 1.26191 21.4282 1.80578 21.972C2.34965 22.5159 3.04258 22.8863 3.79695 23.0363C4.55132 23.1864 5.33325 23.1094 6.04385 22.815C6.75445 22.5207 7.36182 22.0223 7.78913 21.3827C8.21645 20.7432 8.44453 19.9913 8.44453 19.2222V10.6444L16.489 8.66663H16.5667L16.7779 8.49996L16.9445 8.38885C16.9985 8.33861 17.0469 8.28273 17.089 8.22219C17.1323 8.17111 17.1696 8.11518 17.2001 8.05552C17.2337 7.99322 17.2563 7.92554 17.2668 7.85552C17.2784 7.78563 17.2784 7.7143 17.2668 7.64441C17.2717 7.61499 17.2717 7.58494 17.2668 7.55552V1.99996C17.2758 1.83649 17.2486 1.67304 17.1872 1.5213C17.1257 1.36955 17.0315 1.23326 16.9112 1.12219ZM4.55564 20.8888C4.226 20.8888 3.90377 20.7911 3.62969 20.608C3.35561 20.4248 3.14199 20.1645 3.01584 19.86C2.88969 19.5554 2.85669 19.2203 2.921 18.897C2.98531 18.5737 3.14404 18.2768 3.37713 18.0437C3.61021 17.8106 3.90719 17.6518 4.23049 17.5875C4.55379 17.5232 4.8889 17.5562 5.19344 17.6824C5.49799 17.8085 5.75829 18.0222 5.94142 18.2962C6.12456 18.5703 6.22231 18.8925 6.22231 19.2222C6.22231 19.6642 6.04671 20.0881 5.73415 20.4007C5.42159 20.7133 4.99767 20.8888 4.55564 20.8888ZM15.1112 6.68885L8.44453 8.35552V5.08885L15.1112 3.42219V6.68885Z" fill="#FF6C6C"/>
</svg>
