<svg width="30" height="30" viewBox="0 0 30 30" fill="none" xmlns="http://www.w3.org/2000/svg">
<circle cx="15" cy="17.6788" r="9" stroke="#FF6C6C" stroke-width="2"/>
<path fill-rule="evenodd" clip-rule="evenodd" d="M18.7846 8.38393C18.7847 11.5863 18.8087 13.9137 18.8437 14.1255C18.876 14.3216 18.8951 14.4892 18.8861 14.4982C18.8771 14.5071 18.7484 14.3634 18.6002 14.1788C18.0633 13.5101 17.0631 12.8771 16.1543 12.631C15.9548 12.5769 15.5047 12.5171 15.154 12.498C12.9795 12.3797 11.0539 13.6811 10.3435 15.7494C10.1079 16.4352 10.0677 17.574 10.2535 18.3029C10.8073 20.4767 12.6515 21.8978 14.9204 21.8993C16.9455 21.9006 18.7449 20.6572 19.4112 18.7962C19.6882 18.0226 19.7035 17.7206 19.7339 12.4598C19.7567 8.53736 19.7785 7.4963 19.8377 7.51886C20.0364 7.59452 24.8997 9.05897 24.9524 9.05897C24.9918 9.05897 25.0073 8.32663 24.9969 6.95177L24.981 4.84457L21.928 3.92297C20.2488 3.41612 18.8545 3.00078 18.8295 3C18.8046 2.99922 18.7844 5.42198 18.7846 8.38393Z" fill="#FF6C6C"/>
</svg>
