<svg width="25" height="25" viewBox="0 0 25 25" fill="none" xmlns="http://www.w3.org/2000/svg">
<g clip-path="url(#clip0_1_480)">
<path d="M23.04 6.92C22.9212 6.44541 22.6792 6.01057 22.3386 5.65941C21.998 5.30824 21.5707 5.05318 21.1 4.92C19.38 4.5 12.5 4.5 12.5 4.5C12.5 4.5 5.61996 4.5 3.89996 4.96C3.42921 5.09318 3.00194 5.34824 2.66131 5.69941C2.32068 6.05057 2.07875 6.48541 1.95996 6.96C1.64518 8.70556 1.4912 10.4763 1.49996 12.25C1.48874 14.037 1.64273 15.8213 1.95996 17.58C2.09092 18.0398 2.33827 18.4581 2.67811 18.7945C3.01794 19.1308 3.43878 19.3738 3.89996 19.5C5.61996 19.96 12.5 19.96 12.5 19.96C12.5 19.96 19.38 19.96 21.1 19.5C21.5707 19.3668 21.998 19.1118 22.3386 18.7606C22.6792 18.4094 22.9212 17.9746 23.04 17.5C23.3523 15.7676 23.5063 14.0103 23.5 12.25C23.5112 10.463 23.3572 8.6787 23.04 6.92V6.92Z" stroke="#FF6C6C" stroke-width="2" stroke-linecap="round" stroke-linejoin="round"/>
<path d="M10.25 15.52L16 12.25L10.25 8.97998V15.52Z" stroke="#FF6C6C" stroke-width="2" stroke-linecap="round" stroke-linejoin="round"/>
</g>
<defs>
<clipPath id="clip0_1_480">
<rect width="24" height="24" fill="white" transform="translate(0.5 0.5)"/>
</clipPath>
</defs>
</svg>
